{
    "asset" : {
        "generator" : "Khronos glTF Blender I/O v1.1.46",
        "version" : "2.0"
    },
    "scene" : 1,
    "scenes" : [
        {
            "name" : "RotatingLogo"
        },
        {
            "name" : "Scene",
            "nodes" : [
                0
            ]
        }
    ],
    "nodes" : [
        {
            "mesh" : 0,
            "name" : "Textreter",
            "rotation" : [
                0.7071067690849304,
                0,
                0,
                0.7071067690849304
            ]
        }
    ],
    "materials" : [
        {
            "doubleSided" : true,
            "emissiveFactor" : [
                0.010852785781025887,
                0,
                0.059006884694099426
            ],
            "name" : "Material",
            "pbrMetallicRoughness" : {
                "baseColorTexture" : {
                    "index" : 0,
                    "texCoord" : 0
                },
                "metallicFactor" : 0,
                "roughnessFactor" : 0.18636363744735718
            }
        }
    ],
    "meshes" : [
        {
            "name" : "Text",
            "primitives" : [
                {
                    "attributes" : {
                        "POSITION" : 0,
                        "NORMAL" : 1,
                        "TEXCOORD_0" : 2
                    },
                    "indices" : 3,
                    "material" : 0
                }
            ]
        }
    ],
    "textures" : [
        {
            "source" : 0
        }
    ],
    "images" : [
        {
            "bufferView" : 4,
            "mimeType" : "image/png",
            "name" : "TextTex"
        }
    ],
    "accessors" : [
        {
            "bufferView" : 0,
            "componentType" : 5126,
            "count" : 4182,
            "max" : [
                3.98128604888916,
                0.27992504835128784,
                4.158063888549805
            ],
            "min" : [
                -4.449915409088135,
                -3.9828362464904785,
                -1.2831854820251465
            ],
            "type" : "VEC3"
        },
        {
            "bufferView" : 1,
            "componentType" : 5126,
            "count" : 4182,
            "type" : "VEC3"
        },
        {
            "bufferView" : 2,
            "componentType" : 5126,
            "count" : 4182,
            "type" : "VEC2"
        },
        {
            "bufferView" : 3,
            "componentType" : 5123,
            "count" : 13620,
            "type" : "SCALAR"
        }
    ],
    "bufferViews" : [
        {
            "buffer" : 0,
            "byteLength" : 50184,
            "byteOffset" : 0
        },
        {
            "buffer" : 0,
            "byteLength" : 50184,
            "byteOffset" : 50184
        },
        {
            "buffer" : 0,
            "byteLength" : 33456,
            "byteOffset" : 100368
        },
        {
            "buffer" : 0,
            "byteLength" : 27240,
            "byteOffset" : 133824
        },
        {
            "buffer" : 0,
            "byteLength" : 327891,
            "byteOffset" : 161064
        }
    ],
    "buffers" : [
        {
            "byteLength" : 488956,
            "uri" : "data:application/octet-stream;base64,"
        }
    ]
}
