{
    "asset" : {
        "generator" : "Khronos glTF Blender I/O v1.1.46",
        "version" : "2.0"
    },
    "scene" : 0,
    "scenes" : [
        {
            "name" : "RotatingLogo",
            "nodes" : [
                10
            ]
        },
        {
            "name" : "Scene"
        }
    ],
    "nodes" : [
        {
            "mesh" : 0,
            "name" : "Cube",
            "translation" : [
                -4,
                -4,
                0
            ]
        },
        {
            "mesh" : 1,
            "name" : "Cube.001",
            "translation" : [
                -1,
                -4,
                0
            ]
        },
        {
            "mesh" : 2,
            "name" : "Cube.002",
            "translation" : [
                2,
                -4,
                0
            ]
        },
        {
            "mesh" : 3,
            "name" : "Cube.003",
            "translation" : [
                5,
                -4,
                0
            ]
        },
        {
            "mesh" : 4,
            "name" : "Cube.004",
            "translation" : [
                -4,
                -1,
                0
            ]
        },
        {
            "mesh" : 5,
            "name" : "Cube.005",
            "translation" : [
                -1,
                -1,
                0
            ]
        },
        {
            "mesh" : 6,
            "name" : "Cube.006",
            "translation" : [
                2,
                -1,
                0
            ]
        },
        {
            "mesh" : 7,
            "name" : "Cube.007",
            "translation" : [
                -4,
                2,
                0
            ]
        },
        {
            "mesh" : 8,
            "name" : "Cube.008",
            "translation" : [
                -1,
                2,
                0
            ]
        },
        {
            "mesh" : 9,
            "name" : "Cube.009",
            "translation" : [
                -4,
                5,
                0
            ]
        },
        {
            "children" : [
                0,
                1,
                2,
                3,
                4,
                5,
                6,
                7,
                8,
                9
            ],
            "name" : "Empty",
            "translation" : [
                0,
                5,
                0
            ]
        }
    ],
    "animations" : [
        {
            "channels" : [
                {
                    "sampler" : 0,
                    "target" : {
                        "node" : 10,
                        "path" : "rotation"
                    }
                }
            ],
            "name" : "EmptyAction",
            "samplers" : [
                {
                    "input" : 31,
                    "interpolation" : "LINEAR",
                    "output" : 32
                }
            ]
        }
    ],
    "materials" : [
        {
            "doubleSided" : true,
            "emissiveFactor" : [
                0,
                0,
                0
            ],
            "name" : "Foo",
            "pbrMetallicRoughness" : {
                "baseColorFactor" : [
                    0.5775806903839111,
                    0.015208449214696884,
                    0.021219026297330856,
                    1
                ],
                "metallicFactor" : 0.30000001192092896,
                "metallicRoughnessTexture" : {
                    "index" : 0,
                    "texCoord" : 0
                }
            }
        },
        {
            "doubleSided" : true,
            "emissiveFactor" : [
                0,
                0,
                0
            ],
            "name" : "Red",
            "pbrMetallicRoughness" : {
                "baseColorFactor" : [
                    0.887923538684845,
                    0.1070229783654213,
                    0.009721241891384125,
                    1
                ],
                "metallicFactor" : 0.30000001192092896,
                "metallicRoughnessTexture" : {
                    "index" : 1,
                    "texCoord" : 0
                }
            }
        },
        {
            "doubleSided" : true,
            "emissiveFactor" : [
                0,
                0,
                0
            ],
            "name" : "Orange",
            "pbrMetallicRoughness" : {
                "baseColorFactor" : [
                    0.9473068118095398,
                    0.3864293694496155,
                    0.0040247514843940735,
                    1
                ],
                "metallicFactor" : 0.30000001192092896,
                "metallicRoughnessTexture" : {
                    "index" : 2,
                    "texCoord" : 0
                }
            }
        },
        {
            "doubleSided" : true,
            "emissiveFactor" : [
                0,
                0,
                0
            ],
            "name" : "Yellow",
            "pbrMetallicRoughness" : {
                "baseColorFactor" : [
                    0.9911022186279297,
                    0.8069523572921753,
                    0.010960139334201813,
                    1
                ],
                "metallicFactor" : 0.30000001192092896,
                "metallicRoughnessTexture" : {
                    "index" : 3,
                    "texCoord" : 0
                }
            }
        }
    ],
    "meshes" : [
        {
            "name" : "Cube",
            "primitives" : [
                {
                    "attributes" : {
                        "POSITION" : 0,
                        "NORMAL" : 1,
                        "TEXCOORD_0" : 2
                    },
                    "indices" : 3,
                    "material" : 0
                }
            ]
        },
        {
            "name" : "Cube.001",
            "primitives" : [
                {
                    "attributes" : {
                        "POSITION" : 4,
                        "NORMAL" : 5,
                        "TEXCOORD_0" : 6
                    },
                    "indices" : 3,
                    "material" : 1
                }
            ]
        },
        {
            "name" : "Cube.002",
            "primitives" : [
                {
                    "attributes" : {
                        "POSITION" : 7,
                        "NORMAL" : 8,
                        "TEXCOORD_0" : 9
                    },
                    "indices" : 3,
                    "material" : 2
                }
            ]
        },
        {
            "name" : "Cube.003",
            "primitives" : [
                {
                    "attributes" : {
                        "POSITION" : 10,
                        "NORMAL" : 11,
                        "TEXCOORD_0" : 12
                    },
                    "indices" : 3,
                    "material" : 3
                }
            ]
        },
        {
            "name" : "Cube.004",
            "primitives" : [
                {
                    "attributes" : {
                        "POSITION" : 13,
                        "NORMAL" : 14,
                        "TEXCOORD_0" : 15
                    },
                    "indices" : 3,
                    "material" : 1
                }
            ]
        },
        {
            "name" : "Cube.005",
            "primitives" : [
                {
                    "attributes" : {
                        "POSITION" : 16,
                        "NORMAL" : 17,
                        "TEXCOORD_0" : 18
                    },
                    "indices" : 3,
                    "material" : 1
                }
            ]
        },
        {
            "name" : "Cube.006",
            "primitives" : [
                {
                    "attributes" : {
                        "POSITION" : 19,
                        "NORMAL" : 20,
                        "TEXCOORD_0" : 21
                    },
                    "indices" : 3,
                    "material" : 2
                }
            ]
        },
        {
            "name" : "Cube.007",
            "primitives" : [
                {
                    "attributes" : {
                        "POSITION" : 22,
                        "NORMAL" : 23,
                        "TEXCOORD_0" : 24
                    },
                    "indices" : 3,
                    "material" : 2
                }
            ]
        },
        {
            "name" : "Cube.008",
            "primitives" : [
                {
                    "attributes" : {
                        "POSITION" : 25,
                        "NORMAL" : 26,
                        "TEXCOORD_0" : 27
                    },
                    "indices" : 3,
                    "material" : 2
                }
            ]
        },
        {
            "name" : "Cube.009",
            "primitives" : [
                {
                    "attributes" : {
                        "POSITION" : 28,
                        "NORMAL" : 29,
                        "TEXCOORD_0" : 30
                    },
                    "indices" : 3,
                    "material" : 3
                }
            ]
        }
    ],
    "textures" : [
        {
            "source" : 0
        },
        {
            "source" : 0
        },
        {
            "source" : 0
        },
        {
            "source" : 0
        }
    ],
    "images" : [
        {
            "bufferView" : 4,
            "mimeType" : "image/png",
            "name" : "CubeRoughness"
        }
    ],
    "accessors" : [
        {
            "bufferView" : 0,
            "componentType" : 5126,
            "count" : 24,
            "max" : [
                1,
                1,
                1
            ],
            "min" : [
                -1,
                -1,
                -1
            ],
            "type" : "VEC3"
        },
        {
            "bufferView" : 1,
            "componentType" : 5126,
            "count" : 24,
            "type" : "VEC3"
        },
        {
            "bufferView" : 2,
            "componentType" : 5126,
            "count" : 24,
            "type" : "VEC2"
        },
        {
            "bufferView" : 3,
            "componentType" : 5123,
            "count" : 36,
            "type" : "SCALAR"
        },
        {
            "bufferView" : 5,
            "componentType" : 5126,
            "count" : 24,
            "max" : [
                1,
                1,
                1
            ],
            "min" : [
                -1,
                -1,
                -1
            ],
            "type" : "VEC3"
        },
        {
            "bufferView" : 6,
            "componentType" : 5126,
            "count" : 24,
            "type" : "VEC3"
        },
        {
            "bufferView" : 7,
            "componentType" : 5126,
            "count" : 24,
            "type" : "VEC2"
        },
        {
            "bufferView" : 8,
            "componentType" : 5126,
            "count" : 24,
            "max" : [
                1,
                1,
                1
            ],
            "min" : [
                -1,
                -1,
                -1
            ],
            "type" : "VEC3"
        },
        {
            "bufferView" : 9,
            "componentType" : 5126,
            "count" : 24,
            "type" : "VEC3"
        },
        {
            "bufferView" : 10,
            "componentType" : 5126,
            "count" : 24,
            "type" : "VEC2"
        },
        {
            "bufferView" : 11,
            "componentType" : 5126,
            "count" : 24,
            "max" : [
                1,
                1,
                1
            ],
            "min" : [
                -1,
                -1,
                -1
            ],
            "type" : "VEC3"
        },
        {
            "bufferView" : 12,
            "componentType" : 5126,
            "count" : 24,
            "type" : "VEC3"
        },
        {
            "bufferView" : 13,
            "componentType" : 5126,
            "count" : 24,
            "type" : "VEC2"
        },
        {
            "bufferView" : 14,
            "componentType" : 5126,
            "count" : 24,
            "max" : [
                1,
                1,
                1
            ],
            "min" : [
                -1,
                -1,
                -1
            ],
            "type" : "VEC3"
        },
        {
            "bufferView" : 15,
            "componentType" : 5126,
            "count" : 24,
            "type" : "VEC3"
        },
        {
            "bufferView" : 16,
            "componentType" : 5126,
            "count" : 24,
            "type" : "VEC2"
        },
        {
            "bufferView" : 17,
            "componentType" : 5126,
            "count" : 24,
            "max" : [
                1,
                1,
                1
            ],
            "min" : [
                -1,
                -1,
                -1
            ],
            "type" : "VEC3"
        },
        {
            "bufferView" : 18,
            "componentType" : 5126,
            "count" : 24,
            "type" : "VEC3"
        },
        {
            "bufferView" : 19,
            "componentType" : 5126,
            "count" : 24,
            "type" : "VEC2"
        },
        {
            "bufferView" : 20,
            "componentType" : 5126,
            "count" : 24,
            "max" : [
                1,
                1,
                1
            ],
            "min" : [
                -1,
                -1,
                -1
            ],
            "type" : "VEC3"
        },
        {
            "bufferView" : 21,
            "componentType" : 5126,
            "count" : 24,
            "type" : "VEC3"
        },
        {
            "bufferView" : 22,
            "componentType" : 5126,
            "count" : 24,
            "type" : "VEC2"
        },
        {
            "bufferView" : 23,
            "componentType" : 5126,
            "count" : 24,
            "max" : [
                1,
                1,
                1
            ],
            "min" : [
                -1,
                -1,
                -1
            ],
            "type" : "VEC3"
        },
        {
            "bufferView" : 24,
            "componentType" : 5126,
            "count" : 24,
            "type" : "VEC3"
        },
        {
            "bufferView" : 25,
            "componentType" : 5126,
            "count" : 24,
            "type" : "VEC2"
        },
        {
            "bufferView" : 26,
            "componentType" : 5126,
            "count" : 24,
            "max" : [
                1,
                1,
                1
            ],
            "min" : [
                -1,
                -1,
                -1
            ],
            "type" : "VEC3"
        },
        {
            "bufferView" : 27,
            "componentType" : 5126,
            "count" : 24,
            "type" : "VEC3"
        },
        {
            "bufferView" : 28,
            "componentType" : 5126,
            "count" : 24,
            "type" : "VEC2"
        },
        {
            "bufferView" : 29,
            "componentType" : 5126,
            "count" : 24,
            "max" : [
                1,
                1,
                1
            ],
            "min" : [
                -1,
                -1,
                -1
            ],
            "type" : "VEC3"
        },
        {
            "bufferView" : 30,
            "componentType" : 5126,
            "count" : 24,
            "type" : "VEC3"
        },
        {
            "bufferView" : 31,
            "componentType" : 5126,
            "count" : 24,
            "type" : "VEC2"
        },
        {
            "bufferView" : 32,
            "componentType" : 5126,
            "count" : 201,
            "max" : [
                3.3333333333333335
            ],
            "min" : [
                0
            ],
            "type" : "SCALAR"
        },
        {
            "bufferView" : 33,
            "componentType" : 5126,
            "count" : 201,
            "type" : "VEC4"
        }
    ],
    "bufferViews" : [
        {
            "buffer" : 0,
            "byteLength" : 288,
            "byteOffset" : 0
        },
        {
            "buffer" : 0,
            "byteLength" : 288,
            "byteOffset" : 288
        },
        {
            "buffer" : 0,
            "byteLength" : 192,
            "byteOffset" : 576
        },
        {
            "buffer" : 0,
            "byteLength" : 72,
            "byteOffset" : 768
        },
        {
            "buffer" : 0,
            "byteLength" : 327336,
            "byteOffset" : 840
        },
        {
            "buffer" : 0,
            "byteLength" : 288,
            "byteOffset" : 328176
        },
        {
            "buffer" : 0,
            "byteLength" : 288,
            "byteOffset" : 328464
        },
        {
            "buffer" : 0,
            "byteLength" : 192,
            "byteOffset" : 328752
        },
        {
            "buffer" : 0,
            "byteLength" : 288,
            "byteOffset" : 328944
        },
        {
            "buffer" : 0,
            "byteLength" : 288,
            "byteOffset" : 329232
        },
        {
            "buffer" : 0,
            "byteLength" : 192,
            "byteOffset" : 329520
        },
        {
            "buffer" : 0,
            "byteLength" : 288,
            "byteOffset" : 329712
        },
        {
            "buffer" : 0,
            "byteLength" : 288,
            "byteOffset" : 330000
        },
        {
            "buffer" : 0,
            "byteLength" : 192,
            "byteOffset" : 330288
        },
        {
            "buffer" : 0,
            "byteLength" : 288,
            "byteOffset" : 330480
        },
        {
            "buffer" : 0,
            "byteLength" : 288,
            "byteOffset" : 330768
        },
        {
            "buffer" : 0,
            "byteLength" : 192,
            "byteOffset" : 331056
        },
        {
            "buffer" : 0,
            "byteLength" : 288,
            "byteOffset" : 331248
        },
        {
            "buffer" : 0,
            "byteLength" : 288,
            "byteOffset" : 331536
        },
        {
            "buffer" : 0,
            "byteLength" : 192,
            "byteOffset" : 331824
        },
        {
            "buffer" : 0,
            "byteLength" : 288,
            "byteOffset" : 332016
        },
        {
            "buffer" : 0,
            "byteLength" : 288,
            "byteOffset" : 332304
        },
        {
            "buffer" : 0,
            "byteLength" : 192,
            "byteOffset" : 332592
        },
        {
            "buffer" : 0,
            "byteLength" : 288,
            "byteOffset" : 332784
        },
        {
            "buffer" : 0,
            "byteLength" : 288,
            "byteOffset" : 333072
        },
        {
            "buffer" : 0,
            "byteLength" : 192,
            "byteOffset" : 333360
        },
        {
            "buffer" : 0,
            "byteLength" : 288,
            "byteOffset" : 333552
        },
        {
            "buffer" : 0,
            "byteLength" : 288,
            "byteOffset" : 333840
        },
        {
            "buffer" : 0,
            "byteLength" : 192,
            "byteOffset" : 334128
        },
        {
            "buffer" : 0,
            "byteLength" : 288,
            "byteOffset" : 334320
        },
        {
            "buffer" : 0,
            "byteLength" : 288,
            "byteOffset" : 334608
        },
        {
            "buffer" : 0,
            "byteLength" : 192,
            "byteOffset" : 334896
        },
        {
            "buffer" : 0,
            "byteLength" : 804,
            "byteOffset" : 335088
        },
        {
            "buffer" : 0,
            "byteLength" : 3216,
            "byteOffset" : 335892
        }
    ],
    "buffers" : [
        {
            "byteLength" : 339108,
            "uri" : "data:application/octet-stream;base64,"
        }
    ]
}
